<svg viewBox="0 0 36 36" xmlns="http://www.w3.org/2000/svg" xmlns:xlink="http://www.w3.org/1999/xlink" width="36.000000" height="36.000000" fill="none" customFrame="#000000">
    <defs>
        <clipPath id="clipPath_7">
            <rect width="15.513641" height="21.499901" x="10.242920" y="6.750000" fill="rgb(255,255,255)" />
        </clipPath>
    </defs>
    <rect id="Group 49823" width="36.000000" height="36.000000" x="0.000000" y="0.000000" fill="rgb(255,255,255)" fill-opacity="0" />
    <g style="mix-blend-mode:normal">
        <circle id="Ellipse 60" cx="18" cy="18" r="18" fill="rgb(226,30,38)" />
        <circle id="Ellipse 60" cx="18" cy="18" r="17.5" stroke="rgb(112,112,112)" stroke-opacity="0" stroke-width="1" />
    </g>
    <g id="phone-svgrepo-com" customFrame="url(#clipPath_7)">
        <rect id="phone-svgrepo-com" width="15.513641" height="21.499901" x="10.242920" y="6.750000" fill="rgb(255,255,255)" fill-opacity="0" />
        <g style="mix-blend-mode:normal">
            <path id="Path 46966" d="M20.9997 28.2499L14.9997 28.2499C13.667 28.1675 12.3982 27.5711 11.5111 26.573C10.6288 25.5805 10.1813 24.3053 10.2498 22.9799L10.2498 12.0201C10.1813 10.6947 10.6288 9.41937 11.5111 8.42678C12.3982 7.42877 13.6208 6.83379 14.9535 6.75143L20.9997 6.75C22.3324 6.83235 23.6012 7.42876 24.4884 8.42676C25.3707 9.41929 25.8181 10.6946 25.7497 12.02L25.7497 22.98C25.8181 24.3054 25.3707 25.5806 24.4884 26.5731C23.6013 27.5711 22.3325 28.1675 20.9997 28.2499ZM15.024 26.7499L20.9755 26.7499C21.9014 26.687 22.7501 26.2708 23.3673 25.5765C23.9893 24.8768 24.3031 23.9767 24.2509 23.0418L24.2497 12C24.3019 11.0651 23.9893 10.1231 23.3673 9.42334C22.7501 8.72903 21.9014 8.31291 20.9755 8.25L15.024 8.25C14.098 8.31291 13.2494 8.72903 12.6322 9.42332C12.0102 10.1231 11.6964 11.0234 11.7486 11.9582L11.7498 23C11.6975 23.9348 12.0102 24.8768 12.6322 25.5765C13.2494 26.2708 14.098 26.687 15.024 26.7499Z" fill="rgb(255,255,255)" fill-rule="nonzero" />
            <path id="Path 46966" d="M14.9997 28.2499C13.667 28.1675 12.3982 27.5711 11.5111 26.573C10.6288 25.5805 10.1813 24.3053 10.2498 22.9799L10.2498 12.0201C10.1813 10.6947 10.6288 9.41937 11.5111 8.42678C12.3982 7.42877 13.6208 6.83379 14.9535 6.75143L20.9997 6.75C22.3324 6.83235 23.6012 7.42876 24.4884 8.42676C25.3707 9.41929 25.8181 10.6946 25.7497 12.02L25.7497 22.98C25.8181 24.3054 25.3707 25.5806 24.4884 26.5731C23.6013 27.5711 22.3325 28.1675 20.9997 28.2499L14.9997 28.2499ZM20.9755 26.7499C21.9014 26.687 22.7501 26.2708 23.3673 25.5765C23.9893 24.8768 24.3031 23.9767 24.2509 23.0418L24.2497 12C24.3019 11.0651 23.9893 10.1231 23.3673 9.42334C22.7501 8.72903 21.9014 8.31291 20.9755 8.25L15.024 8.25C14.098 8.31291 13.2494 8.72903 12.6322 9.42332C12.0102 10.1231 11.6964 11.0234 11.7486 11.9582L11.7498 23C11.6975 23.9348 12.0102 24.8768 12.6322 25.5765C13.2494 26.2708 14.098 26.687 15.024 26.7499L20.9755 26.7499Z" fill-rule="nonzero" stroke="rgb(0,0,0)" stroke-opacity="0" stroke-width="1.5" />
        </g>
        <g style="mix-blend-mode:normal">
            <path id="Path 46967" d="M20 11.25L16 11.25C15.5858 11.25 15.25 10.9142 15.25 10.5C15.25 10.0858 15.5858 9.75 16 9.75L20 9.75C20.4142 9.75 20.75 10.0858 20.75 10.5C20.75 10.9142 20.4142 11.25 20 11.25Z" fill="rgb(255,255,255)" fill-rule="nonzero" />
            <path id="Path 46967" d="M16 11.25C15.5858 11.25 15.25 10.9142 15.25 10.5C15.25 10.0858 15.5858 9.75 16 9.75L20 9.75C20.4142 9.75 20.75 10.0858 20.75 10.5C20.75 10.9142 20.4142 11.25 20 11.25L16 11.25Z" fill-rule="nonzero" stroke="rgb(0,0,0)" stroke-opacity="0" stroke-width="1.5" />
        </g>
    </g>
</svg>
