<svg viewBox="0 0 17.8582 17.8585" xmlns="http://www.w3.org/2000/svg" xmlns:xlink="http://www.w3.org/1999/xlink" width="17.858154" height="17.858490" fill="none" customFrame="#000000">
    <g id="Icon feather-download">
        <g style="mix-blend-mode:normal">
            <path id="Path 46970" d="M14.1294 16.3584L3.72872 16.3584C2.4998 16.3584 1.5 15.3586 1.5 14.1296L1.5 11.158C1.5 10.7477 1.83261 10.4151 2.24291 10.4151C2.65321 10.4151 2.98582 10.7477 2.98582 11.158L2.98582 14.1296C2.98582 14.5393 3.31908 14.8725 3.72872 14.8725L14.1294 14.8725C14.5391 14.8725 14.8723 14.5393 14.8723 14.1296L14.8723 11.158C14.8723 10.7477 15.2049 10.4151 15.6152 10.4151C16.0255 10.4151 16.3582 10.7477 16.3582 11.158L16.3582 14.1296C16.3582 15.3586 15.3584 16.3584 14.1294 16.3584Z" fill="rgb(0,0,0)" fill-rule="nonzero" />
            <path id="Path 46970" d="M3.72872 16.3584C2.4998 16.3584 1.5 15.3586 1.5 14.1296L1.5 11.158C1.5 10.7477 1.83261 10.4151 2.24291 10.4151C2.65321 10.4151 2.98582 10.7477 2.98582 11.158L2.98582 14.1296C2.98582 14.5393 3.31908 14.8725 3.72872 14.8725L14.1294 14.8725C14.5391 14.8725 14.8723 14.5393 14.8723 14.1296L14.8723 11.158C14.8723 10.7477 15.2049 10.4151 15.6152 10.4151C16.0255 10.4151 16.3582 10.7477 16.3582 11.158L16.3582 14.1296C16.3582 15.3586 15.3584 16.3584 14.1294 16.3584L3.72872 16.3584Z" fill-rule="nonzero" stroke="rgb(0,0,0)" stroke-opacity="0" stroke-width="3" />
        </g>
        <g style="mix-blend-mode:normal">
            <path id="Path 46971" d="M8.92901 11.9006C8.73888 11.9006 8.54875 11.8281 8.40369 11.683L4.68915 7.96848C4.39903 7.67835 4.39903 7.20798 4.68915 6.91785C4.97928 6.62773 5.44966 6.62773 5.73978 6.91785L8.92901 10.1071L12.1182 6.91785C12.4084 6.62773 12.8787 6.62773 13.1689 6.91785C13.459 7.20798 13.459 7.67835 13.1689 7.96848L9.45432 11.683C9.30926 11.8281 9.11913 11.9006 8.92901 11.9006Z" fill="rgb(0,0,0)" fill-rule="nonzero" />
            <path id="Path 46971" d="M8.40369 11.683L4.68915 7.96848C4.39903 7.67835 4.39903 7.20798 4.68915 6.91785C4.97928 6.62773 5.44966 6.62773 5.73978 6.91785L8.92901 10.1071L12.1182 6.91785C12.4084 6.62773 12.8787 6.62773 13.1689 6.91785C13.459 7.20798 13.459 7.67835 13.1689 7.96848L9.45432 11.683C9.30926 11.8281 9.11913 11.9006 8.92901 11.9006C8.73888 11.9006 8.54875 11.8281 8.40369 11.683Z" fill-rule="nonzero" stroke="rgb(0,0,0)" stroke-opacity="0" stroke-width="3" />
        </g>
        <g style="mix-blend-mode:normal">
            <path id="Path 46972" d="M8.92907 11.9008C8.51877 11.9008 8.18616 11.5682 8.18616 11.1579L8.18616 2.24297C8.18616 1.83267 8.51877 1.50006 8.92907 1.50006C9.33936 1.50006 9.67197 1.83267 9.67197 2.24297L9.67197 11.1579C9.67197 11.5682 9.33936 11.9008 8.92907 11.9008Z" fill="rgb(0,0,0)" fill-rule="nonzero" />
            <path id="Path 46972" d="M8.18616 11.1579L8.18616 2.24297C8.18616 1.83267 8.51877 1.50006 8.92907 1.50006C9.33936 1.50006 9.67197 1.83267 9.67197 2.24297L9.67197 11.1579C9.67197 11.5682 9.33936 11.9008 8.92907 11.9008C8.51877 11.9008 8.18616 11.5682 8.18616 11.1579Z" fill-rule="nonzero" stroke="rgb(0,0,0)" stroke-opacity="0" stroke-width="3" />
        </g>
    </g>
</svg>
