<svg viewBox="0 0 65.5593 65.5603" xmlns="http://www.w3.org/2000/svg" xmlns:xlink="http://www.w3.org/1999/xlink" width="65.559326" height="65.560303" fill="none" customFrame="#000000">
    <g style="mix-blend-mode:normal">
        <path id="monitor-sun-svgrepo-com" d="M23.6933 16.9238C23.6933 20.6625 20.6625 23.6933 16.9238 23.6933C13.1851 23.6933 10.1543 20.6625 10.1543 16.9238C10.1543 13.1851 13.1851 10.1543 16.9238 10.1543C20.6625 10.1543 23.6933 13.1851 23.6933 16.9238Z" fill="rgb(0,0,0)" fill-opacity="0" fill-rule="nonzero" />
        <path id="monitor-sun-svgrepo-com" d="M20.3085 64.3103L47.3865 64.3103M33.8475 50.7713L33.8475 64.3103M42.3094 3.38475L53.4781 3.38475C57.2693 3.38475 59.1648 3.38475 60.6128 4.12259C61.8868 4.77159 62.9222 5.80719 63.5714 7.08097C64.3093 8.52904 64.3093 10.4247 64.3093 14.216L64.3093 39.9401C64.3093 43.7313 64.3093 45.6271 63.5714 47.0751C62.9222 48.3488 61.8868 49.3846 60.6128 50.0334C59.1648 50.7713 57.2693 50.7713 53.4781 50.7713L13.539 50.7713C10.3848 50.7713 8.80774 50.7713 7.56367 50.2561C5.90497 49.569 4.58712 48.251 3.90005 46.5925C3.38475 45.3482 3.38475 43.7713 3.38475 40.617M16.9238 0L16.9238 1.41033M16.9238 32.4378L16.9238 33.8482M33.8465 16.9238L32.4361 16.9238M1.41033 16.9238L0 16.9238M28.8885 4.95707L27.891 5.95432M5.95537 27.8931L4.95812 28.8902M4.95914 4.95789L5.95639 5.95513M27.8954 27.8937L28.8926 28.8909M16.9238 23.6933C13.1851 23.6933 10.1543 20.6625 10.1543 16.9238C10.1543 13.1851 13.1851 10.1543 16.9238 10.1543C20.6625 10.1543 23.6933 13.1851 23.6933 16.9238C23.6933 20.6625 20.6625 23.6933 16.9238 23.6933Z" fill-rule="nonzero" stroke="rgb(0,0,0)" stroke-width="2.5" />
    </g>
</svg>
