<svg viewBox="0 0 122 54.8462" xmlns="http://www.w3.org/2000/svg" xmlns:xlink="http://www.w3.org/1999/xlink" width="122.000366" height="54.846191" fill="none" customFrame="#000000">
    <defs>
        <clipPath id="clipPath_4">
            <rect width="25.770874" height="24.087860" x="13.718536" y="15.646973" fill="rgb(255,255,255)" />
        </clipPath>
        <clipPath id="clipPath_5">
            <rect width="25.770874" height="24.087860" x="13.718536" y="15.646973" fill="rgb(255,255,255)" />
        </clipPath>
    </defs>
    <rect id="Layer 1" width="121.000374" height="53.645493" x="0.500000" y="0.500000" fill="rgb(255,255,255)" fill-opacity="0" />
    <g id="&lt;Group>" customFrame="url(#clipPath_4)">
        <rect id="&lt;Group>" width="25.770874" height="24.087860" x="13.718536" y="15.646973" fill="rgb(255,255,255)" fill-opacity="0" />
        <g style="mix-blend-mode:normal">
            <path id="&lt;Path>" d="M29.7771 26.867C29.7771 28.515 28.4447 29.8473 26.7968 29.8473C25.1489 29.8473 23.8165 28.515 23.8165 26.867C23.8165 25.2191 25.1489 23.8867 26.7968 23.8867C28.4447 23.8867 29.7771 25.2191 29.7771 26.867Z" fill="rgb(226,30,38)" fill-rule="nonzero" />
            <path id="&lt;Path>" d="M26.7968 29.8473C25.1489 29.8473 23.8165 28.515 23.8165 26.867C23.8165 25.2191 25.1489 23.8867 26.7968 23.8867C28.4447 23.8867 29.7771 25.2191 29.7771 26.867C29.7771 28.515 28.4447 29.8473 26.7968 29.8473Z" fill-rule="nonzero" stroke="rgb(112,112,112)" stroke-opacity="0" stroke-width="1" />
        </g>
        <g id="&lt;Group>" customFrame="url(#clipPath_5)">
            <rect id="&lt;Group>" width="25.770874" height="24.087860" x="13.718536" y="15.646973" fill="rgb(255,255,255)" fill-opacity="0" />
            <g style="mix-blend-mode:normal">
                <path id="&lt;Path>" d="M29.2863 22.5893C29.9174 22.975 30.4784 23.5009 30.8641 24.1671C31.3549 24.9034 31.6004 25.7449 31.6354 26.5514L39.4543 27.1474C39.4543 27.0422 39.4894 26.937 39.4894 26.8319C39.4894 22.0283 36.8597 17.8559 32.9328 15.647L29.2863 22.5893Z" fill="rgb(226,30,38)" fill-rule="nonzero" />
                <path id="&lt;Path>" d="M30.8641 24.1671C31.3549 24.9034 31.6004 25.7449 31.6354 26.5514L39.4543 27.1474C39.4543 27.0422 39.4894 26.937 39.4894 26.8319C39.4894 22.0283 36.8597 17.8559 32.9328 15.647L29.2863 22.5893C29.9174 22.975 30.4784 23.5009 30.8641 24.1671Z" fill-rule="nonzero" stroke="rgb(112,112,112)" stroke-opacity="0" stroke-width="1" />
            </g>
            <g style="mix-blend-mode:normal">
                <path id="&lt;Path>" d="M28.7954 31.3901C27.463 32.0212 25.9553 32.0212 24.658 31.4953L20.696 38.2624C22.4491 39.174 24.4827 39.735 26.5864 39.735C28.8304 39.735 30.9342 39.1389 32.7574 38.1572L28.7954 31.3901Z" fill="rgb(226,30,38)" fill-rule="nonzero" />
                <path id="&lt;Path>" d="M24.658 31.4953L20.696 38.2624C22.4491 39.174 24.4827 39.735 26.5864 39.735C28.8304 39.735 30.9342 39.1389 32.7574 38.1572L28.7954 31.3901C27.463 32.0212 25.9553 32.0212 24.658 31.4953Z" fill-rule="nonzero" stroke="rgb(112,112,112)" stroke-opacity="0" stroke-width="1" />
            </g>
            <g style="mix-blend-mode:normal">
                <path id="&lt;Path>" d="M21.5725 26.7967C21.5725 25.2189 22.3439 23.7112 23.6762 22.7295L20.0297 15.7871C16.2781 18.0311 13.7185 22.1334 13.7185 26.8318C13.7185 27.0422 13.7536 27.2175 13.7536 27.3928L21.5725 26.7967Z" fill="rgb(226,30,38)" fill-rule="nonzero" />
                <path id="&lt;Path>" d="M23.6762 22.7295L20.0297 15.7871C16.2781 18.0311 13.7185 22.1334 13.7185 26.8318C13.7185 27.0422 13.7536 27.2175 13.7536 27.3928L21.5725 26.7967C21.5725 25.2189 22.3439 23.7112 23.6762 22.7295Z" fill-rule="nonzero" stroke="rgb(112,112,112)" stroke-opacity="0" stroke-width="1" />
            </g>
        </g>
    </g>
    <g style="mix-blend-mode:normal">
        <path id="&lt;Path>" d="M47.098 42.6801C50.6042 38.2622 52.7079 32.6522 52.7079 26.5864C52.7079 12.2108 40.9971 0.5 26.5864 0.5C20.4856 0.5 14.8405 2.63879 10.3876 6.1801C11.9304 7.72285 13.4731 9.27728 15.0159 10.8434C18.3117 8.35397 22.379 6.91641 26.7968 6.91641C37.6311 6.91641 46.4668 15.7171 46.4668 26.5514C46.4668 37.4207 37.6311 46.2214 26.7968 46.2214C24.2723 46.2214 21.853 45.7305 19.609 44.8539C19.5623 44.8306 19.5155 44.8072 19.4688 44.7838C19.2818 44.7137 19.1065 44.6436 18.9428 44.5734C16.3833 43.4865 14.1042 41.8736 12.2109 39.84L7.61768 44.4332C8.64618 45.5318 9.75648 46.5369 10.9486 47.4486C11.0655 47.5187 11.1824 47.6005 11.2992 47.694C11.4629 47.8109 11.6265 47.9277 11.7901 48.0446C12.0472 48.2316 12.316 48.4069 12.5965 48.5706C16.6638 51.1652 21.4673 52.6729 26.5864 52.6729C29.146 52.6729 31.6354 52.2872 33.9846 51.621C33.4704 51.808 32.9561 51.9833 32.4419 52.1469C34.5456 51.6911 36.5091 50.9899 38.3674 50.0783L41.8737 54.1455L48.9913 48.1498L45.9409 44.7488C46.385 44.0943 46.7707 43.4047 47.098 42.6801Z" fill="rgb(226,30,38)" fill-rule="nonzero" />
        <path id="&lt;Path>" d="M52.7079 26.5864C52.7079 12.2108 40.9971 0.5 26.5864 0.5C20.4856 0.5 14.8405 2.63879 10.3876 6.1801C11.9304 7.72285 13.4731 9.27728 15.0159 10.8434C18.3117 8.35397 22.379 6.91641 26.7968 6.91641C37.6311 6.91641 46.4668 15.7171 46.4668 26.5514C46.4668 37.4207 37.6311 46.2214 26.7968 46.2214C24.2723 46.2214 21.853 45.7305 19.609 44.8539C19.5623 44.8306 19.5155 44.8072 19.4688 44.7838C19.2818 44.7137 19.1065 44.6436 18.9428 44.5734C16.3833 43.4865 14.1042 41.8736 12.2109 39.84L7.61768 44.4332C8.64618 45.5318 9.75648 46.5369 10.9486 47.4486C11.0655 47.5187 11.1824 47.6005 11.2992 47.694C11.4629 47.8109 11.6265 47.9277 11.7901 48.0446C12.0472 48.2316 12.316 48.4069 12.5965 48.5706C16.6638 51.1652 21.4673 52.6729 26.5864 52.6729C29.146 52.6729 31.6354 52.2872 33.9846 51.621C33.4704 51.808 32.9561 51.9833 32.4419 52.1469C34.5456 51.6911 36.5091 50.9899 38.3674 50.0783L41.8737 54.1455L48.9913 48.1498L45.9409 44.7488C46.385 44.0943 46.7707 43.4047 47.098 42.6801C50.6042 38.2622 52.7079 32.6522 52.7079 26.5864Z" fill-rule="nonzero" stroke="rgb(112,112,112)" stroke-opacity="0" stroke-width="1" />
    </g>
    <g style="mix-blend-mode:normal">
        <path id="&lt;Path>" d="M7.02161 26.5861C7.02161 24.6577 7.30212 22.8344 7.82804 21.0813C8.00336 20.4151 7.86311 19.7489 7.37224 19.2581L5.09317 16.979C4.14649 16.0323 2.53362 16.3829 2.07781 17.6452C1.06099 20.4502 0.5 23.4655 0.5 26.5861C0.5 31.8104 2.07781 36.6841 4.74255 40.7864C5.33862 41.733 6.70605 41.8733 7.54755 41.0668L9.61623 38.9631C10.2123 38.4021 10.3525 37.4554 9.89673 36.7542C8.07349 33.8089 7.02161 30.3027 7.02161 26.5861Z" fill="rgb(64,63,64)" fill-rule="nonzero" />
        <path id="&lt;Path>" d="M7.82804 21.0813C8.00336 20.4151 7.86311 19.7489 7.37224 19.2581L5.09317 16.979C4.14649 16.0323 2.53362 16.3829 2.07781 17.6452C1.06099 20.4502 0.5 23.4655 0.5 26.5861C0.5 31.8104 2.07781 36.6841 4.74255 40.7864C5.33862 41.733 6.70605 41.8733 7.54755 41.0668L9.61623 38.9631C10.2123 38.4021 10.3525 37.4554 9.89673 36.7542C8.07349 33.8089 7.02161 30.3027 7.02161 26.5861C7.02161 24.6577 7.30212 22.8344 7.82804 21.0813Z" fill-rule="nonzero" stroke="rgb(112,112,112)" stroke-opacity="0" stroke-width="1" />
    </g>
    <g style="mix-blend-mode:normal">
        <path id="&lt;Path>" d="M6.39046 15.2611C4.67239 13.7534 4.42696 11.6848 5.82946 10.0719C7.19689 8.52914 9.30064 8.49408 11.0187 10.0018C12.7367 11.5095 12.9471 13.6132 11.5797 15.1559C10.2123 16.7338 8.10851 16.7688 6.39046 15.2611Z" fill="rgb(64,63,64)" fill-rule="nonzero" />
        <path id="&lt;Path>" d="M5.82946 10.0719C7.19689 8.52914 9.30064 8.49408 11.0187 10.0018C12.7367 11.5095 12.9471 13.6132 11.5797 15.1559C10.2123 16.7338 8.10851 16.7688 6.39046 15.2611C4.67239 13.7534 4.42696 11.6848 5.82946 10.0719Z" fill-rule="nonzero" stroke="rgb(112,112,112)" stroke-opacity="0" stroke-width="1" />
    </g>
    <g style="mix-blend-mode:normal">
        <path id="&lt;Path>" d="M71.5014 18.6622C71.0573 18.2181 70.356 17.809 69.3976 17.435C68.4393 17.061 67.0952 16.874 65.3655 16.874C63.963 16.874 62.6774 17.0727 61.5086 17.4701C60.3165 17.8674 59.3114 18.4285 58.4932 19.1531C57.6517 19.9011 56.9972 20.8244 56.5297 21.923C56.0622 23.0216 55.8285 24.2722 55.8285 25.6747L55.8285 39.4542L62.7358 39.4542L62.7358 27.1824C62.7358 25.7097 63.1215 24.6579 63.8928 24.0267C64.6642 23.3956 65.5875 23.0801 66.6628 23.0801C67.5043 23.0801 68.2639 23.1852 68.9418 23.3956C69.6431 23.5826 70.2391 23.793 70.73 24.0267C70.8001 23.9566 70.9287 23.8164 71.1157 23.606C71.2793 23.3956 71.4547 23.1502 71.6416 22.8697C71.8286 22.5892 71.9922 22.2619 72.1325 21.8879C72.2494 21.5139 72.3078 21.1049 72.3078 20.6608C72.3078 20.24 72.2377 19.8777 72.0974 19.5738C71.9572 19.2466 71.7585 18.9427 71.5014 18.6622Z" fill="rgb(64,63,64)" fill-rule="nonzero" />
        <path id="&lt;Path>" d="M69.3976 17.435C68.4393 17.061 67.0952 16.874 65.3655 16.874C63.963 16.874 62.6774 17.0727 61.5086 17.4701C60.3165 17.8674 59.3114 18.4285 58.4932 19.1531C57.6517 19.9011 56.9972 20.8244 56.5297 21.923C56.0622 23.0216 55.8285 24.2722 55.8285 25.6747L55.8285 39.4542L62.7358 39.4542L62.7358 27.1824C62.7358 25.7097 63.1215 24.6579 63.8928 24.0267C64.6642 23.3956 65.5875 23.0801 66.6628 23.0801C67.5043 23.0801 68.2639 23.1852 68.9418 23.3956C69.6431 23.5826 70.2391 23.793 70.73 24.0267C70.8001 23.9566 70.9287 23.8164 71.1157 23.606C71.2793 23.3956 71.4547 23.1502 71.6416 22.8697C71.8286 22.5892 71.9922 22.2619 72.1325 21.8879C72.2494 21.5139 72.3078 21.1049 72.3078 20.6608C72.3078 20.24 72.2377 19.8777 72.0974 19.5738C71.9572 19.2466 71.7585 18.9427 71.5014 18.6622C71.0573 18.2181 70.356 17.809 69.3976 17.435Z" fill-rule="nonzero" stroke="rgb(112,112,112)" stroke-opacity="0" stroke-width="1" />
    </g>
    <g style="mix-blend-mode:normal">
        <path id="&lt;Path>" d="M93.9062 21.7832C93.2751 20.5911 92.4219 19.6211 91.3467 18.8731C90.2714 18.1485 89.0092 17.6342 87.56 17.3303C86.0873 17.0264 84.5212 16.8745 82.8616 16.8745C77.7425 16.8745 75.1829 18.1251 75.1829 20.6262C75.1829 21.0236 75.2531 21.3976 75.3933 21.7482C75.5335 22.0988 75.6972 22.4144 75.8842 22.6949C76.0478 22.952 76.2114 23.174 76.375 23.361C76.562 23.5247 76.6789 23.6299 76.7257 23.6766C76.8426 23.6065 77.0529 23.5013 77.3568 23.361C77.6373 23.1974 78.0113 23.0455 78.4788 22.9052C78.9463 22.765 79.519 22.6481 80.1968 22.5546C80.8747 22.4611 81.6578 22.4144 82.546 22.4144C84.4394 22.4144 85.7952 22.6949 86.6133 23.2559C87.4314 23.8402 87.8405 24.6233 87.8405 25.605L87.8755 30.3385L87.8755 30.4437L87.8755 34.9316C87.6885 34.9784 87.2794 35.0251 86.6483 35.0719C86.0172 35.1186 85.3276 35.142 84.5797 35.142C83.6213 35.142 82.8616 35.0602 82.3006 34.8966C81.7162 34.7563 81.2838 34.5693 81.0033 34.3356C80.7228 34.1018 80.5358 33.8447 80.4423 33.5642C80.3488 33.2603 80.3021 32.9798 80.3021 32.7227C80.3021 32.3955 80.3605 32.0682 80.4774 31.741C80.5942 31.4371 80.8046 31.1566 81.1085 30.8995C81.4123 30.6657 81.8331 30.4787 82.3707 30.3385C82.9317 30.1749 83.633 30.093 84.4745 30.093C84.755 30.093 85.0238 30.1047 85.2809 30.1281L85.2809 25.4648C84.8835 25.4648 84.4628 25.4648 84.0186 25.4648C80.3488 25.4648 77.6606 26.0258 75.9543 27.1478C74.2713 28.2932 73.4298 30.1865 73.4298 32.8279C73.4298 33.8096 73.5934 34.733 73.9207 35.5978C74.2713 36.4627 74.879 37.2341 75.7439 37.9119C76.6088 38.5665 77.7542 39.0807 79.18 39.4547C80.6292 39.8521 82.4408 40.0508 84.6147 40.0508C85.9003 40.0508 87.1275 40.0274 88.2963 39.9806C89.465 39.9105 90.4935 39.8287 91.3817 39.7352C92.2934 39.6651 93.053 39.5949 93.6608 39.5248C94.2686 39.4547 94.6542 39.3846 94.8178 39.3144L94.8178 26.3063C94.8178 24.5064 94.514 22.9987 93.9062 21.7832Z" fill="rgb(64,63,64)" fill-rule="nonzero" />
        <path id="&lt;Path>" d="M91.3467 18.8731C90.2714 18.1485 89.0092 17.6342 87.56 17.3303C86.0873 17.0264 84.5212 16.8745 82.8616 16.8745C77.7425 16.8745 75.1829 18.1251 75.1829 20.6262C75.1829 21.0236 75.2531 21.3976 75.3933 21.7482C75.5335 22.0988 75.6972 22.4144 75.8842 22.6949C76.0478 22.952 76.2114 23.174 76.375 23.361C76.562 23.5247 76.6789 23.6299 76.7257 23.6766C76.8426 23.6065 77.0529 23.5013 77.3568 23.361C77.6373 23.1974 78.0113 23.0455 78.4788 22.9052C78.9463 22.765 79.519 22.6481 80.1968 22.5546C80.8747 22.4611 81.6578 22.4144 82.546 22.4144C84.4394 22.4144 85.7952 22.6949 86.6133 23.2559C87.4314 23.8402 87.8405 24.6233 87.8405 25.605L87.8755 30.3385L87.8755 30.4437L87.8755 34.9316C87.6885 34.9784 87.2794 35.0251 86.6483 35.0719C86.0172 35.1186 85.3276 35.142 84.5797 35.142C83.6213 35.142 82.8616 35.0602 82.3006 34.8966C81.7162 34.7563 81.2838 34.5693 81.0033 34.3356C80.7228 34.1018 80.5358 33.8447 80.4423 33.5642C80.3488 33.2603 80.3021 32.9798 80.3021 32.7227C80.3021 32.3955 80.3605 32.0682 80.4774 31.741C80.5942 31.4371 80.8046 31.1566 81.1085 30.8995C81.4123 30.6657 81.8331 30.4787 82.3707 30.3385C82.9317 30.1749 83.633 30.093 84.4745 30.093C84.755 30.093 85.0238 30.1047 85.2809 30.1281L85.2809 25.4648C84.8835 25.4648 84.4628 25.4648 84.0186 25.4648C80.3488 25.4648 77.6606 26.0258 75.9543 27.1478C74.2713 28.2932 73.4298 30.1865 73.4298 32.8279C73.4298 33.8096 73.5934 34.733 73.9207 35.5978C74.2713 36.4627 74.879 37.2341 75.7439 37.9119C76.6088 38.5665 77.7542 39.0807 79.18 39.4547C80.6292 39.8521 82.4408 40.0508 84.6147 40.0508C85.9003 40.0508 87.1275 40.0274 88.2963 39.9806C89.465 39.9105 90.4935 39.8287 91.3817 39.7352C92.2934 39.6651 93.053 39.5949 93.6608 39.5248C94.2686 39.4547 94.6542 39.3846 94.8178 39.3144L94.8178 26.3063C94.8178 24.5064 94.514 22.9987 93.9062 21.7832C93.2751 20.5911 92.4219 19.6211 91.3467 18.8731Z" fill-rule="nonzero" stroke="rgb(112,112,112)" stroke-opacity="0" stroke-width="1" />
    </g>
    <g style="mix-blend-mode:normal">
        <path id="&lt;Path>" d="M120.308 8.00365C119.7 7.81664 119.011 7.72314 118.24 7.72314C117.141 7.72314 116.264 7.94521 115.61 8.38931C114.932 8.85683 114.593 9.65158 114.593 10.7736L114.593 19.1184L114.628 27.8139C114.675 28.0476 114.663 28.2814 114.663 28.5152C114.663 30.128 114.196 31.3903 113.261 32.3019C112.326 33.2135 111.134 33.6693 109.684 33.6693C108.258 33.6693 107.078 33.2018 106.143 32.2668C105.208 31.3084 104.741 30.0579 104.741 28.5151C104.741 26.9724 105.208 25.6985 106.143 24.6933C107.078 23.7116 108.258 23.2207 109.684 23.2207C110.409 23.2207 111.075 23.361 111.683 23.6415C111.823 23.6882 111.952 23.7467 112.069 23.8168L112.069 17.5757C111.04 17.1082 109.778 16.8744 108.282 16.8744C106.809 16.8744 105.43 17.1549 104.145 17.7159C102.859 18.2769 101.737 19.06 100.779 20.0651C99.7968 21.0702 99.0371 22.2857 98.4995 23.7116C97.9384 25.1375 97.658 26.7269 97.658 28.4801C97.658 30.1864 97.9501 31.7643 98.5345 33.2135C99.1422 34.6394 99.9838 35.8549 101.059 36.86C102.111 37.8651 103.361 38.6482 104.811 39.2092C106.26 39.7702 107.838 40.0507 109.544 40.0507C111.601 40.0507 113.471 39.6767 115.154 38.9287C116.86 38.1807 118.251 37.0937 119.327 35.6679C120.028 34.7562 120.565 33.6226 120.939 32.2668C121.313 30.9111 121.5 29.3099 121.5 27.4633L121.5 8.35425C121.337 8.3075 120.939 8.19064 120.308 8.00365Z" fill="rgb(64,63,64)" fill-rule="nonzero" />
        <path id="&lt;Path>" d="M118.24 7.72314C117.141 7.72314 116.264 7.94521 115.61 8.38931C114.932 8.85683 114.593 9.65158 114.593 10.7736L114.593 19.1184L114.628 27.8139C114.675 28.0476 114.663 28.2814 114.663 28.5152C114.663 30.128 114.196 31.3903 113.261 32.3019C112.326 33.2135 111.134 33.6693 109.684 33.6693C108.258 33.6693 107.078 33.2018 106.143 32.2668C105.208 31.3084 104.741 30.0579 104.741 28.5151C104.741 26.9724 105.208 25.6985 106.143 24.6933C107.078 23.7116 108.258 23.2207 109.684 23.2207C110.409 23.2207 111.075 23.361 111.683 23.6415C111.823 23.6882 111.952 23.7467 112.069 23.8168L112.069 17.5757C111.04 17.1082 109.778 16.8744 108.282 16.8744C106.809 16.8744 105.43 17.1549 104.145 17.7159C102.859 18.2769 101.737 19.06 100.779 20.0651C99.7968 21.0702 99.0371 22.2857 98.4995 23.7116C97.9384 25.1375 97.658 26.7269 97.658 28.4801C97.658 30.1864 97.9501 31.7643 98.5345 33.2135C99.1422 34.6394 99.9838 35.8549 101.059 36.86C102.111 37.8651 103.361 38.6482 104.811 39.2092C106.26 39.7702 107.838 40.0507 109.544 40.0507C111.601 40.0507 113.471 39.6767 115.154 38.9287C116.86 38.1807 118.251 37.0937 119.327 35.6679C120.028 34.7562 120.565 33.6226 120.939 32.2668C121.313 30.9111 121.5 29.3099 121.5 27.4633L121.5 8.35425C121.337 8.3075 120.939 8.19064 120.308 8.00365C119.7 7.81664 119.011 7.72314 118.24 7.72314Z" fill-rule="nonzero" stroke="rgb(112,112,112)" stroke-opacity="0" stroke-width="1" />
    </g>
</svg>
