<svg viewBox="0 0 47.1499 54.8418" xmlns="http://www.w3.org/2000/svg" xmlns:xlink="http://www.w3.org/1999/xlink" width="47.149902" height="54.841797" fill="none" customFrame="#000000">
    <g style="mix-blend-mode:normal">
        <path id="Icon metro-file-pdf" d="M44.6068 11.9173C45.1677 12.4781 45.6484 13.2393 46.0491 14.2008C46.4497 15.1622 46.65 16.0436 46.65 16.8448L46.65 51.4573C46.65 52.2585 46.3695 52.9395 45.8087 53.5004C45.2478 54.0612 44.5668 54.3416 43.7656 54.3416L3.38437 54.3416C2.58316 54.3416 1.90213 54.0612 1.34128 53.5004C0.780426 52.9395 0.5 52.2585 0.5 51.4573L0.5 3.38437C0.5 2.58316 0.780426 1.90213 1.34128 1.34128C1.90213 0.780425 2.58316 0.5 3.38437 0.5L30.3052 0.5C31.1064 0.5 31.9877 0.700311 32.9492 1.10093C33.9107 1.50156 34.6719 1.98229 35.2328 2.54314L44.6068 11.9173ZM31.2666 4.58613L31.2666 15.8833L42.5637 15.8833C42.3634 15.3024 42.1431 14.8918 41.9028 14.6514L32.4984 5.24711C32.2581 5.00675 31.8475 4.78642 31.2666 4.58613ZM42.8041 50.4958L42.8041 19.7291L30.3051 19.7291C29.5039 19.7291 28.8229 19.4487 28.262 18.8878C27.7012 18.327 27.4208 17.6459 27.4208 16.8447L27.4208 4.34579L4.34579 4.34579L4.34579 50.4958L42.8041 50.4958ZM27.3607 32.6787C28.0217 33.1995 28.8629 33.7604 29.8845 34.3613C31.0663 34.2211 32.2381 34.151 33.3998 34.151C36.3443 34.151 38.117 34.6417 38.7179 35.6232C39.0384 36.0639 39.0584 36.5846 38.778 37.1856L38.6879 37.3058C38.5677 38.0669 37.8566 38.4775 36.5547 38.4775C35.5932 38.4775 34.4414 38.2772 33.0994 37.8766C31.7574 37.4759 30.4554 36.9451 29.1935 36.2841C24.7668 36.7649 20.8408 37.5961 17.4156 38.7779C14.351 44.0259 11.9273 46.6499 10.1446 46.6499C9.84419 46.6499 9.56376 46.5798 9.30332 46.4395L8.58224 46.079C8.56226 46.059 8.50216 46.0089 8.40195 45.9288C8.20165 45.7285 8.14155 45.3679 8.22165 44.8472C8.40193 44.046 8.96278 43.1296 9.9042 42.098C10.8456 41.0664 12.1677 40.0999 13.8703 39.1986C14.1507 39.0183 14.381 39.0784 14.5613 39.3789C14.6014 39.4189 14.6214 39.459 14.6214 39.4991C15.663 37.7965 16.7346 35.8235 17.8363 33.5801C19.1983 30.856 20.2399 28.232 20.9611 25.7082C20.4803 24.0657 20.1748 22.4683 20.0446 20.9159C19.9144 19.3636 19.9795 18.0866 20.2399 17.0851C20.4602 16.2839 20.8809 15.8833 21.5018 15.8833L22.1628 15.8833C22.6235 15.8833 22.974 16.0335 23.2144 16.334C23.5749 16.7546 23.6651 17.4356 23.4848 18.3771C23.4447 18.4972 23.4047 18.5774 23.3646 18.6174C23.3846 18.6775 23.3946 18.7576 23.3946 18.8577L23.3946 19.7591C23.3546 22.2229 23.2144 24.1458 22.974 25.5278C24.0757 28.8128 25.5379 31.1965 27.3607 32.6787ZM10.0544 45.0275C11.096 44.5467 12.4681 42.9643 14.1707 40.2802C13.1491 41.0815 12.2728 41.9227 11.5417 42.8041C10.8106 43.6854 10.3148 44.4265 10.0544 45.0275ZM22.0126 17.3856C21.7122 18.2268 21.6921 19.5488 21.9525 21.3516C21.9725 21.2114 22.0426 20.7707 22.1628 20.0296C22.1628 19.9695 22.2329 19.5389 22.3731 18.7376C22.3931 18.6575 22.4332 18.5774 22.4933 18.4973C22.4933 18.4773 22.4583 18.4021 22.4483 18.3921C22.4283 17.9515 22.283 17.5459 22.0426 17.2655C22.0426 17.2855 22.0326 17.3655 22.0126 17.3856ZM18.2869 37.2457C20.991 36.164 23.8353 35.3528 26.8198 34.812C26.7798 34.7919 26.6496 34.6968 26.4292 34.5265C26.2089 34.3562 26.0486 34.221 25.9485 34.1209C24.4262 32.7789 23.1543 31.0162 22.1328 28.8329C21.592 30.5555 20.7607 32.5285 19.639 34.7519C19.0381 35.8736 18.5873 36.7048 18.2869 37.2457ZM37.6963 36.7649C37.2156 36.2842 35.8135 36.0438 33.4899 36.0438C35.0123 36.6047 36.2542 36.8851 37.2156 36.8851C37.496 36.8851 37.6162 36.7849 37.6963 36.7649Z" fill="rgb(0,0,0)" fill-rule="nonzero" />
        <path id="Icon metro-file-pdf" d="M46.0491 14.2008C46.4497 15.1622 46.65 16.0436 46.65 16.8448L46.65 51.4573C46.65 52.2585 46.3695 52.9395 45.8087 53.5004C45.2478 54.0612 44.5668 54.3416 43.7656 54.3416L3.38437 54.3416C2.58316 54.3416 1.90213 54.0612 1.34128 53.5004C0.780426 52.9395 0.5 52.2585 0.5 51.4573L0.5 3.38437C0.5 2.58316 0.780426 1.90213 1.34128 1.34128C1.90213 0.780425 2.58316 0.5 3.38437 0.5L30.3052 0.5C31.1064 0.5 31.9877 0.700311 32.9492 1.10093C33.9107 1.50156 34.6719 1.98229 35.2328 2.54314L44.6068 11.9173C45.1677 12.4781 45.6484 13.2393 46.0491 14.2008ZM31.2666 15.8833L42.5637 15.8833C42.3634 15.3024 42.1431 14.8918 41.9028 14.6514L32.4984 5.24711C32.2581 5.00675 31.8475 4.78642 31.2666 4.58613L31.2666 15.8833ZM42.8041 19.7291L30.3051 19.7291C29.5039 19.7291 28.8229 19.4487 28.262 18.8878C27.7012 18.327 27.4208 17.6459 27.4208 16.8447L27.4208 4.34579L4.34579 4.34579L4.34579 50.4958L42.8041 50.4958L42.8041 19.7291ZM29.8845 34.3613C31.0663 34.2211 32.2381 34.151 33.3998 34.151C36.3443 34.151 38.117 34.6417 38.7179 35.6232C39.0384 36.0639 39.0584 36.5846 38.778 37.1856L38.6879 37.3058C38.5677 38.0669 37.8566 38.4775 36.5547 38.4775C35.5932 38.4775 34.4414 38.2772 33.0994 37.8766C31.7574 37.4759 30.4554 36.9451 29.1935 36.2841C24.7668 36.7649 20.8408 37.5961 17.4156 38.7779C14.351 44.0259 11.9273 46.6499 10.1446 46.6499C9.84419 46.6499 9.56376 46.5798 9.30332 46.4395L8.58224 46.079C8.56226 46.059 8.50216 46.0089 8.40195 45.9288C8.20165 45.7285 8.14155 45.3679 8.22165 44.8472C8.40193 44.046 8.96278 43.1296 9.9042 42.098C10.8456 41.0664 12.1677 40.0999 13.8703 39.1986C14.1507 39.0183 14.381 39.0784 14.5613 39.3789C14.6014 39.4189 14.6214 39.459 14.6214 39.4991C15.663 37.7965 16.7346 35.8235 17.8363 33.5801C19.1983 30.856 20.2399 28.232 20.9611 25.7082C20.4803 24.0657 20.1748 22.4683 20.0446 20.9159C19.9144 19.3636 19.9795 18.0866 20.2399 17.0851C20.4602 16.2839 20.8809 15.8833 21.5018 15.8833L22.1628 15.8833C22.6235 15.8833 22.974 16.0335 23.2144 16.334C23.5749 16.7546 23.6651 17.4356 23.4848 18.3771C23.4447 18.4972 23.4047 18.5774 23.3646 18.6174C23.3846 18.6775 23.3946 18.7576 23.3946 18.8577L23.3946 19.7591C23.3546 22.2229 23.2144 24.1458 22.974 25.5278C24.0757 28.8128 25.5379 31.1965 27.3607 32.6787C28.0217 33.1995 28.8629 33.7604 29.8845 34.3613ZM14.1707 40.2802C13.1491 41.0815 12.2728 41.9227 11.5417 42.8041C10.8106 43.6854 10.3148 44.4265 10.0544 45.0275C11.096 44.5467 12.4681 42.9643 14.1707 40.2802ZM21.9525 21.3516C21.9725 21.2114 22.0426 20.7707 22.1628 20.0296C22.1628 19.9695 22.2329 19.5389 22.3731 18.7376C22.3931 18.6575 22.4332 18.5774 22.4933 18.4973C22.4933 18.4773 22.4583 18.4021 22.4483 18.3921C22.4283 17.9515 22.283 17.5459 22.0426 17.2655C22.0426 17.2855 22.0326 17.3655 22.0126 17.3856C21.7122 18.2268 21.6921 19.5488 21.9525 21.3516ZM26.8198 34.812C26.7798 34.7919 26.6496 34.6968 26.4292 34.5265C26.2089 34.3562 26.0486 34.221 25.9485 34.1209C24.4262 32.7789 23.1543 31.0162 22.1328 28.8329C21.592 30.5555 20.7607 32.5285 19.639 34.7519C19.0381 35.8736 18.5873 36.7048 18.2869 37.2457C20.991 36.164 23.8353 35.3528 26.8198 34.812ZM33.4899 36.0438C35.0123 36.6047 36.2542 36.8851 37.2156 36.8851C37.496 36.8851 37.6162 36.7849 37.6963 36.7649C37.2156 36.2842 35.8135 36.0438 33.4899 36.0438Z" fill-rule="nonzero" stroke="rgb(0,0,0)" stroke-opacity="0" stroke-width="1" />
    </g>
</svg>
