<svg viewBox="0 0 36 36" xmlns="http://www.w3.org/2000/svg" xmlns:xlink="http://www.w3.org/1999/xlink" width="36.000000" height="36.000000" fill="none" customFrame="#000000">
    <rect id="Group 49825" width="36.000000" height="36.000000" x="0.000000" y="0.000000" fill="rgb(255,255,255)" fill-opacity="0" />
    <g style="mix-blend-mode:normal">
        <circle id="Ellipse 60" cx="18" cy="18" r="18" fill="rgb(226,30,38)" />
        <circle id="Ellipse 60" cx="18" cy="18" r="17.5" stroke="rgb(112,112,112)" stroke-opacity="0" stroke-width="1" />
    </g>
    <g style="mix-blend-mode:normal">
        <path id="Icon simple-email" d="M26.7032 16.7605C26.6758 17.4866 26.5687 18.2076 26.3837 18.9103C26.2122 19.5818 25.9297 20.2199 25.5478 20.7983C25.1755 21.3508 24.7035 21.7988 24.1306 22.1399C23.5541 22.4798 22.8659 22.6503 22.0612 22.6503C21.4967 22.6503 20.9983 22.5278 20.5647 22.284C20.1324 22.0402 19.7961 21.6955 19.5535 21.2475C18.8809 22.1555 17.9753 22.6095 16.8416 22.6095C16.3455 22.6095 15.8951 22.499 15.4892 22.2792C15.0777 22.0543 14.7288 21.7302 14.4743 21.3364C14.1854 20.887 13.9856 20.3863 13.8858 19.8615C13.7627 19.2278 13.7368 18.579 13.8089 17.9375C13.9098 17.0727 14.1068 16.2849 14.3951 15.581C14.6833 14.876 15.0436 14.2743 15.4784 13.7759C15.9108 13.2775 16.408 12.8931 16.9677 12.6253C17.5333 12.3564 18.1525 12.2189 18.7788 12.223C19.192 12.223 19.5523 12.2542 19.8621 12.3154C20.172 12.3779 20.4506 12.462 20.7029 12.5677C20.9551 12.6758 21.1857 12.7959 21.3995 12.9352C21.612 13.0721 21.8258 13.2138 22.0384 13.3579L21.5124 19.4111C21.4763 19.7018 21.4835 19.9372 21.528 20.1197C21.5724 20.2999 21.6445 20.4476 21.7442 20.5569C21.8438 20.6674 21.9603 20.7431 22.0949 20.7851C22.52 20.9208 22.9851 20.8292 23.3271 20.5425C23.5793 20.3383 23.8015 20.0585 23.9877 19.7018C24.1726 19.3439 24.3204 18.9211 24.4321 18.4383C24.5402 17.9531 24.6062 17.4294 24.6266 16.8649C24.6819 15.7924 24.599 14.8112 24.3792 13.9248C24.1582 13.0385 23.7955 12.2794 23.2911 11.6501C22.7704 11.0097 22.1007 10.5066 21.3406 10.1848C20.5479 9.83892 19.5991 9.66477 18.499 9.66477C17.4541 9.66477 16.5173 9.86895 15.6886 10.2773C14.8638 10.6846 14.1357 11.2636 13.5531 11.9756C12.9375 12.7363 12.464 13.6016 12.1551 14.5301C11.8188 15.509 11.6231 16.5719 11.5666 17.7129C11.5126 18.9499 11.6123 20.0309 11.8669 20.9605C12.1215 21.8901 12.5154 22.6659 13.0535 23.2881C13.5961 23.915 14.2874 24.3957 15.064 24.6861C15.8687 24.9947 16.7935 25.1497 17.8384 25.1497C18.4502 25.1432 19.06 25.0776 19.6592 24.9539C19.9594 24.8938 20.2441 24.8218 20.5155 24.7425C20.7869 24.662 21.0319 24.5744 21.2529 24.4783L21.6337 26.191C21.3935 26.3471 21.1172 26.484 20.8086 26.5993C20.4898 26.7141 20.1641 26.8084 19.8333 26.8815C19.1645 27.0307 18.4816 27.1072 17.7964 27.1097C16.4008 27.1097 15.1625 26.9104 14.0828 26.5116C13.0043 26.1129 12.1011 25.5196 11.3757 24.7317C10.6502 23.945 10.1086 22.9662 9.75067 21.7928C9.39396 20.6206 9.24263 19.2586 9.29668 17.7129C9.35913 16.3029 9.61855 14.9985 10.0773 13.7975C10.5337 12.5989 11.1607 11.5636 11.9582 10.6868C12.7619 9.81109 13.739 9.1121 14.8274 8.63429C15.9372 8.13706 17.1742 7.88965 18.5434 7.88965C19.9054 7.88965 21.1052 8.10583 22.1441 8.5346C23.1818 8.96457 24.0489 9.56749 24.7431 10.3482C25.4373 11.1288 25.9514 12.0632 26.2853 13.1502C26.6191 14.2371 26.7585 15.4405 26.7032 16.7605ZM16.3888 17.9375C16.3131 18.8298 16.3828 19.506 16.6001 19.9636C16.8163 20.42 17.1646 20.6482 17.645 20.6482C17.7671 20.6452 17.8879 20.6229 18.0029 20.5821C18.1351 20.5377 18.2744 20.4548 18.4149 20.3347C18.5566 20.2146 18.6959 20.0465 18.8329 19.8303C18.9722 19.6141 19.0995 19.3283 19.2172 18.9776L19.6279 14.2743C19.4238 14.2191 19.2076 14.1903 18.989 14.1903C18.5758 14.1903 18.2227 14.2743 17.9261 14.4341C17.6192 14.606 17.3603 14.8521 17.173 15.1499C16.9474 15.5144 16.779 15.9114 16.6734 16.3269C16.5461 16.7953 16.45 17.3309 16.3888 17.9375Z" fill="rgb(255,255,255)" fill-rule="nonzero" />
        <path id="Icon simple-email" d="M26.3837 18.9103C26.2122 19.5818 25.9297 20.2199 25.5478 20.7983C25.1755 21.3508 24.7035 21.7988 24.1306 22.1399C23.5541 22.4798 22.8659 22.6503 22.0612 22.6503C21.4967 22.6503 20.9983 22.5278 20.5647 22.284C20.1324 22.0402 19.7961 21.6955 19.5535 21.2475C18.8809 22.1555 17.9753 22.6095 16.8416 22.6095C16.3455 22.6095 15.8951 22.499 15.4892 22.2792C15.0777 22.0543 14.7288 21.7302 14.4743 21.3364C14.1854 20.887 13.9856 20.3863 13.8858 19.8615C13.7627 19.2278 13.7368 18.579 13.8089 17.9375C13.9098 17.0727 14.1068 16.2849 14.3951 15.581C14.6833 14.876 15.0436 14.2743 15.4784 13.7759C15.9108 13.2775 16.408 12.8931 16.9677 12.6253C17.5333 12.3564 18.1525 12.2189 18.7788 12.223C19.192 12.223 19.5523 12.2542 19.8621 12.3154C20.172 12.3779 20.4506 12.462 20.7029 12.5677C20.9551 12.6758 21.1857 12.7959 21.3995 12.9352C21.612 13.0721 21.8258 13.2138 22.0384 13.3579L21.5124 19.4111C21.4763 19.7018 21.4835 19.9372 21.528 20.1197C21.5724 20.2999 21.6445 20.4476 21.7442 20.5569C21.8438 20.6674 21.9603 20.7431 22.0949 20.7851C22.52 20.9208 22.9851 20.8292 23.3271 20.5425C23.5793 20.3383 23.8015 20.0585 23.9877 19.7018C24.1726 19.3439 24.3204 18.9211 24.4321 18.4383C24.5402 17.9531 24.6062 17.4294 24.6266 16.8649C24.6819 15.7924 24.599 14.8112 24.3792 13.9248C24.1582 13.0385 23.7955 12.2794 23.2911 11.6501C22.7704 11.0097 22.1007 10.5066 21.3406 10.1848C20.5479 9.83892 19.5991 9.66477 18.499 9.66477C17.4541 9.66477 16.5173 9.86895 15.6886 10.2773C14.8638 10.6846 14.1357 11.2636 13.5531 11.9756C12.9375 12.7363 12.464 13.6016 12.1551 14.5301C11.8188 15.509 11.6231 16.5719 11.5666 17.7129C11.5126 18.9499 11.6123 20.0309 11.8669 20.9605C12.1215 21.8901 12.5154 22.6659 13.0535 23.2881C13.5961 23.915 14.2874 24.3957 15.064 24.6861C15.8687 24.9947 16.7935 25.1497 17.8384 25.1497C18.4502 25.1432 19.06 25.0776 19.6592 24.9539C19.9594 24.8938 20.2441 24.8218 20.5155 24.7425C20.7869 24.662 21.0319 24.5744 21.2529 24.4783L21.6337 26.191C21.3935 26.3471 21.1172 26.484 20.8086 26.5993C20.4898 26.7141 20.1641 26.8084 19.8333 26.8815C19.1645 27.0307 18.4816 27.1072 17.7964 27.1097C16.4008 27.1097 15.1625 26.9104 14.0828 26.5116C13.0043 26.1129 12.1011 25.5196 11.3757 24.7317C10.6502 23.945 10.1086 22.9662 9.75067 21.7928C9.39396 20.6206 9.24263 19.2586 9.29668 17.7129C9.35913 16.3029 9.61855 14.9985 10.0773 13.7975C10.5337 12.5989 11.1607 11.5636 11.9582 10.6868C12.7619 9.81109 13.739 9.1121 14.8274 8.63429C15.9372 8.13706 17.1742 7.88965 18.5434 7.88965C19.9054 7.88965 21.1052 8.10583 22.1441 8.5346C23.1818 8.96457 24.0489 9.56749 24.7431 10.3482C25.4373 11.1288 25.9514 12.0632 26.2853 13.1502C26.6191 14.2371 26.7585 15.4405 26.7032 16.7605C26.6758 17.4866 26.5687 18.2076 26.3837 18.9103ZM16.6001 19.9636C16.8163 20.42 17.1646 20.6482 17.645 20.6482C17.7671 20.6452 17.8879 20.6229 18.0029 20.5821C18.1351 20.5377 18.2744 20.4548 18.4149 20.3347C18.5566 20.2146 18.6959 20.0465 18.8329 19.8303C18.9722 19.6141 19.0995 19.3283 19.2172 18.9776L19.6279 14.2743C19.4238 14.2191 19.2076 14.1903 18.989 14.1903C18.5758 14.1903 18.2227 14.2743 17.9261 14.4341C17.6192 14.606 17.3603 14.8521 17.173 15.1499C16.9474 15.5144 16.779 15.9114 16.6734 16.3269C16.5461 16.7953 16.45 17.3309 16.3888 17.9375C16.3131 18.8298 16.3828 19.506 16.6001 19.9636Z" fill-rule="nonzero" stroke="rgb(0,0,0)" stroke-opacity="0" stroke-width="1" />
    </g>
</svg>
