<svg viewBox="0 0 23.5004 23" xmlns="http://www.w3.org/2000/svg" xmlns:xlink="http://www.w3.org/1999/xlink" width="23.500366" height="23.000000" fill="none" customFrame="#000000">
    <defs>
        <clipPath id="clipPath_6">
            <rect width="15.513641" height="21.499901" x="0.750244" y="0.750000" fill="rgb(255,255,255)" />
        </clipPath>
    </defs>
    <rect id="Group 49284" width="22.750107" height="21.499901" x="0.750244" y="0.750000" fill="rgb(255,255,255)" fill-opacity="0" />
    <g style="mix-blend-mode:normal">
        <path id="+48 660 468 569" />
    </g>
    <g id="phone-svgrepo-com" customFrame="url(#clipPath_6)">
        <rect id="phone-svgrepo-com" width="15.513641" height="21.499901" x="0.750244" y="0.750000" fill="rgb(255,255,255)" fill-opacity="0" />
        <g style="mix-blend-mode:normal">
            <path id="Path 46966" d="M11.5071 22.2499L5.50707 22.2499C4.1743 22.1675 2.90551 21.5711 2.01844 20.573C1.13615 19.5805 0.688639 18.3053 0.757076 16.9799L0.757076 6.02005C0.688639 4.69465 1.13614 3.41937 2.01845 2.42678C2.90556 1.42877 4.12808 0.83379 5.46081 0.75143L11.5071 0.75C12.8398 0.83235 14.1085 1.42876 14.9957 2.42676C15.878 3.41929 16.3255 4.69456 16.2571 6.02004L16.2571 16.98C16.3255 18.3054 15.878 19.5806 14.9957 20.5731C14.1086 21.5711 12.8398 22.1675 11.5071 22.2499ZM5.5313 20.7499L11.4828 20.7499C12.4088 20.687 13.2574 20.2708 13.8746 19.5765C14.4966 18.8768 14.8104 17.9767 14.7582 17.0418L14.7571 6C14.8093 5.06512 14.4966 4.12307 13.8746 3.42334C13.2574 2.72903 12.4088 2.31291 11.4828 2.25L5.53128 2.25C4.60536 2.31291 3.75671 2.72903 3.13957 3.42332C2.51751 4.12313 2.20369 5.02336 2.25591 5.95817L2.25708 17C2.20486 17.9348 2.51751 18.8768 3.13955 19.5765C3.75669 20.2708 4.60534 20.687 5.5313 20.7499Z" fill="rgb(0,0,0)" fill-rule="nonzero" />
            <path id="Path 46966" d="M5.50707 22.2499C4.1743 22.1675 2.90551 21.5711 2.01844 20.573C1.13615 19.5805 0.688639 18.3053 0.757076 16.9799L0.757076 6.02005C0.688639 4.69465 1.13614 3.41937 2.01845 2.42678C2.90556 1.42877 4.12808 0.83379 5.46081 0.75143L11.5071 0.75C12.8398 0.83235 14.1085 1.42876 14.9957 2.42676C15.878 3.41929 16.3255 4.69456 16.2571 6.02004L16.2571 16.98C16.3255 18.3054 15.878 19.5806 14.9957 20.5731C14.1086 21.5711 12.8398 22.1675 11.5071 22.2499L5.50707 22.2499ZM11.4828 20.7499C12.4088 20.687 13.2574 20.2708 13.8746 19.5765C14.4966 18.8768 14.8104 17.9767 14.7582 17.0418L14.7571 6C14.8093 5.06512 14.4966 4.12307 13.8746 3.42334C13.2574 2.72903 12.4088 2.31291 11.4828 2.25L5.53128 2.25C4.60536 2.31291 3.75671 2.72903 3.13957 3.42332C2.51751 4.12313 2.20369 5.02336 2.25591 5.95817L2.25708 17C2.20486 17.9348 2.51751 18.8768 3.13955 19.5765C3.75669 20.2708 4.60534 20.687 5.5313 20.7499L11.4828 20.7499Z" fill-rule="nonzero" stroke="rgb(0,0,0)" stroke-opacity="0" stroke-width="1.5" />
        </g>
        <g style="mix-blend-mode:normal">
            <path id="Path 46967" d="M10.5072 5.25L6.5072 5.25C6.09299 5.25 5.7572 4.91421 5.7572 4.5C5.7572 4.08579 6.09299 3.75 6.5072 3.75L10.5072 3.75C10.9214 3.75 11.2572 4.08579 11.2572 4.5C11.2572 4.91421 10.9214 5.25 10.5072 5.25Z" fill="rgb(0,0,0)" fill-rule="nonzero" />
            <path id="Path 46967" d="M6.5072 5.25C6.09299 5.25 5.7572 4.91421 5.7572 4.5C5.7572 4.08579 6.09299 3.75 6.5072 3.75L10.5072 3.75C10.9214 3.75 11.2572 4.08579 11.2572 4.5C11.2572 4.91421 10.9214 5.25 10.5072 5.25L6.5072 5.25Z" fill-rule="nonzero" stroke="rgb(0,0,0)" stroke-opacity="0" stroke-width="1.5" />
        </g>
    </g>
</svg>
