<svg viewBox="0 0 63.4246 64.4768" xmlns="http://www.w3.org/2000/svg" xmlns:xlink="http://www.w3.org/1999/xlink" width="63.424561" height="64.476807" fill="none" customFrame="#000000">
    <g id="Group 49808">
        <g style="mix-blend-mode:normal">
            <path id="monitor-sun-svgrepo-com" d="M18.1738 63.2268L45.2518 63.2268M31.7128 49.6878L31.7128 63.2268M40.1747 2.30127L51.3433 2.30127C55.1346 2.30127 57.03 2.30127 58.4781 3.03911C59.7521 3.6881 60.7875 4.7237 61.4367 5.99749C62.1745 7.44555 62.1745 9.34118 62.1745 13.1325L62.1745 38.8566C62.1745 42.6479 62.1745 44.5437 61.4367 45.9917C60.7875 47.2653 59.7521 48.3011 58.4781 48.9499C57.03 49.6878 55.1346 49.6878 51.3433 49.6878L11.4043 49.6878C8.25008 49.6878 6.67298 49.6878 5.42892 49.1726C3.77022 48.4855 2.45237 47.1675 1.76529 45.509C1.25 44.2648 1.25 42.6878 1.25 39.5336" stroke="rgb(0,0,0)" stroke-width="2.5" />
        </g>
        <g id="user-svgrepo-com">
            <g style="mix-blend-mode:normal">
                <circle id="Ellipse 59" cx="14.4742775" cy="7.41653824" r="6.41653824" fill="rgb(0,0,0)" fill-opacity="0" />
                <circle id="Ellipse 59" cx="14.4742775" cy="7.41653824" r="6.41653824" stroke="rgb(13,13,13)" stroke-width="2" />
            </g>
            <g style="mix-blend-mode:normal">
                <path id="Path 47148" d="M27.3011 26.2361C27.3051 25.9771 27.3051 25.7141 27.3051 25.4475C27.3051 21.5275 21.6558 18.3499 14.687 18.3499C7.71826 18.3499 2.06897 21.5275 2.06897 25.4475C2.06897 29.3675 2.06897 32.5452 14.687 32.5452C18.2059 32.5452 20.7434 32.298 22.5733 31.8565" stroke="rgb(13,13,13)" stroke-width="2" />
            </g>
        </g>
    </g>
</svg>
