<svg viewBox="0 0 63.4246 66.3093" xmlns="http://www.w3.org/2000/svg" xmlns:xlink="http://www.w3.org/1999/xlink" width="63.424561" height="66.309326" fill="none" customFrame="#000000">
    <g id="Group 49807">
        <g style="mix-blend-mode:normal">
            <path id="monitor-sun-svgrepo-com" d="M18.1738 65.0593L45.2518 65.0593M31.7128 51.5203L31.7128 65.0593M40.1747 4.13379L51.3433 4.13379C55.1346 4.13379 57.03 4.13379 58.4781 4.87163C59.7521 5.52062 60.7875 6.55622 61.4367 7.83001C62.1745 9.27807 62.1745 11.1737 62.1745 14.965L62.1745 40.6891C62.1745 44.4804 62.1745 46.3762 61.4367 47.8242C60.7875 49.0979 59.7521 50.1336 58.4781 50.7825C57.03 51.5203 55.1346 51.5203 51.3433 51.5203L11.4043 51.5203C8.25008 51.5203 6.67298 51.5203 5.42892 51.0052C3.77022 50.3181 2.45237 49 1.76529 47.3415C1.25 46.0973 1.25 44.5203 1.25 41.3661" stroke="rgb(0,0,0)" stroke-width="2.5" />
        </g>
        <g id="hand-stars-svgrepo-com">
            <g style="mix-blend-mode:normal">
                <path id="Path 47144" d="M15.9482 3.18915C16.7988 1.66298 17.2243 0.899902 17.8602 0.899902C18.4961 0.899902 18.9216 1.66298 19.7722 3.18915L19.9924 3.58398C20.2342 4.01767 20.3551 4.23451 20.5435 4.37759C20.732 4.52067 20.9668 4.57378 21.4361 4.68L21.8636 4.7767C23.5157 5.15049 24.3417 5.3374 24.5381 5.96935C24.7347 6.60133 24.1716 7.25984 23.0454 8.57685L22.7539 8.91758C22.4338 9.29182 22.2738 9.47896 22.2019 9.71046C22.1299 9.94196 22.1541 10.1916 22.2024 10.691L22.2464 11.1456C22.4167 12.9027 22.502 13.7813 21.9873 14.1719C21.4729 14.5625 20.6994 14.2064 19.1526 13.4942L18.7525 13.3099C18.3129 13.1075 18.0931 13.0063 17.8602 13.0063C17.6273 13.0063 17.4075 13.1075 16.9679 13.3099L16.5678 13.4942C15.021 14.2064 14.2475 14.5625 13.733 14.1719C13.2185 13.7813 13.3036 12.9027 13.4739 11.1456L13.518 10.691C13.5663 10.1916 13.5905 9.94196 13.5186 9.71046C13.4466 9.47896 13.2865 9.29182 12.9665 8.91758L12.6751 8.57685C11.5488 7.25984 10.9857 6.60133 11.1822 5.96935C11.3788 5.3374 12.2048 5.15049 13.8568 4.7767L14.2842 4.68C14.7536 4.57378 14.9884 4.52067 15.177 4.37759C15.3653 4.23451 15.4862 4.01767 15.728 3.58398L15.9482 3.18915Z" fill="rgb(0,0,0)" fill-opacity="0" fill-rule="nonzero" />
                <path id="Path 47144" d="M17.8602 0.899902C18.4961 0.899902 18.9216 1.66298 19.7722 3.18915L19.9924 3.58398C20.2342 4.01767 20.3551 4.23451 20.5435 4.37759C20.732 4.52067 20.9668 4.57378 21.4361 4.68L21.8636 4.7767C23.5157 5.15049 24.3417 5.3374 24.5381 5.96935C24.7347 6.60133 24.1716 7.25984 23.0454 8.57685L22.7539 8.91758C22.4338 9.29182 22.2738 9.47896 22.2019 9.71046C22.1299 9.94196 22.1541 10.1916 22.2024 10.691L22.2464 11.1456C22.4167 12.9027 22.502 13.7813 21.9873 14.1719C21.4729 14.5625 20.6994 14.2064 19.1526 13.4942L18.7525 13.3099C18.3129 13.1075 18.0931 13.0063 17.8602 13.0063C17.6273 13.0063 17.4075 13.1075 16.9679 13.3099L16.5678 13.4942C15.021 14.2064 14.2475 14.5625 13.733 14.1719C13.2185 13.7813 13.3036 12.9027 13.4739 11.1456L13.518 10.691C13.5663 10.1916 13.5905 9.94196 13.5186 9.71046C13.4466 9.47896 13.2865 9.29182 12.9665 8.91758L12.6751 8.57685C11.5488 7.25984 10.9857 6.60133 11.1822 5.96935C11.3788 5.3374 12.2048 5.15049 13.8568 4.7767L14.2842 4.68C14.7536 4.57378 14.9884 4.52067 15.177 4.37759C15.3653 4.23451 15.4862 4.01767 15.728 3.58398L15.9482 3.18915C16.7988 1.66298 17.2243 0.899902 17.8602 0.899902Z" fill-rule="nonzero" stroke="rgb(13,13,13)" stroke-width="1.79999995" />
            </g>
            <g style="mix-blend-mode:normal">
                <path id="Path 47145" d="M30.3372 10.44C30.7627 9.67696 30.9753 9.29541 31.2933 9.29541C31.6113 9.29541 31.8239 9.67694 32.2494 10.44L32.3594 10.6375C32.4803 10.8543 32.5407 10.9627 32.6349 11.0343C32.7291 11.1058 32.8465 11.1323 33.0812 11.1855L33.295 11.2338C34.121 11.4207 34.534 11.5141 34.6323 11.8301C34.7305 12.1461 34.4491 12.4754 33.8859 13.1339L33.7401 13.3042C33.5801 13.4914 33.5002 13.5849 33.4641 13.7007C33.4281 13.8164 33.4402 13.9413 33.4644 14.1909L33.4864 14.4183C33.5715 15.2968 33.6142 15.7361 33.3569 15.9313C33.0997 16.1266 32.713 15.9486 31.9396 15.5925L31.7394 15.5005C31.5196 15.3992 31.4098 15.3487 31.2933 15.3487C31.1768 15.3487 31.0669 15.3992 30.8471 15.5005L30.647 15.5925C29.8736 15.9486 29.4869 16.1266 29.2296 15.9313C28.9724 15.7361 29.015 15.2968 29.1002 14.4183L29.1222 14.1909C29.1464 13.9413 29.1584 13.8164 29.1225 13.7007C29.0864 13.5849 29.0065 13.4914 28.8465 13.3042L28.7007 13.1339C28.1375 12.4754 27.8561 12.1461 27.9543 11.8301C28.0526 11.5141 28.4656 11.4207 29.2916 11.2338L29.5054 11.1855C29.7401 11.1323 29.8575 11.1058 29.9517 11.0343C30.0459 10.9627 30.1063 10.8543 30.2272 10.6375L30.3372 10.44Z" fill="rgb(0,0,0)" fill-opacity="0" fill-rule="nonzero" />
                <path id="Path 47145" d="M31.2933 9.29541C31.6113 9.29541 31.8239 9.67694 32.2494 10.44L32.3594 10.6375C32.4803 10.8543 32.5407 10.9627 32.6349 11.0343C32.7291 11.1058 32.8465 11.1323 33.0812 11.1855L33.295 11.2338C34.121 11.4207 34.534 11.5141 34.6323 11.8301C34.7305 12.1461 34.4491 12.4754 33.8859 13.1339L33.7401 13.3042C33.5801 13.4914 33.5002 13.5849 33.4641 13.7007C33.4281 13.8164 33.4402 13.9413 33.4644 14.1909L33.4864 14.4183C33.5715 15.2968 33.6142 15.7361 33.3569 15.9313C33.0997 16.1266 32.713 15.9486 31.9396 15.5925L31.7394 15.5005C31.5196 15.3992 31.4098 15.3487 31.2933 15.3487C31.1768 15.3487 31.0669 15.3992 30.8471 15.5005L30.647 15.5925C29.8736 15.9486 29.4869 16.1266 29.2296 15.9313C28.9724 15.7361 29.015 15.2968 29.1002 14.4183L29.1222 14.1909C29.1464 13.9413 29.1584 13.8164 29.1225 13.7007C29.0864 13.5849 29.0065 13.4914 28.8465 13.3042L28.7007 13.1339C28.1375 12.4754 27.8561 12.1461 27.9543 11.8301C28.0526 11.5141 28.4656 11.4207 29.2916 11.2338L29.5054 11.1855C29.7401 11.1323 29.8575 11.1058 29.9517 11.0343C30.0459 10.9627 30.1063 10.8543 30.2272 10.6375L30.3372 10.44C30.7627 9.67696 30.9753 9.29541 31.2933 9.29541Z" fill-rule="nonzero" stroke="rgb(13,13,13)" stroke-width="1.79999995" />
            </g>
            <g style="mix-blend-mode:normal">
                <path id="Path 47146" d="M3.47113 10.44C3.89651 9.67696 4.1092 9.29541 4.42718 9.29541C4.74516 9.29541 4.95785 9.67694 5.38323 10.44L5.49328 10.6375C5.61416 10.8543 5.67459 10.9627 5.76882 11.0343C5.86306 11.1058 5.98043 11.1323 6.21515 11.1855L6.42886 11.2338C7.25489 11.4207 7.66791 11.5141 7.76617 11.8301C7.86443 12.1461 7.58286 12.4754 7.01973 13.1339L6.87405 13.3042C6.71401 13.4914 6.634 13.5849 6.59801 13.7007C6.56201 13.8164 6.5741 13.9413 6.5983 14.1909L6.62033 14.4183C6.70546 15.2968 6.74804 15.7361 6.49078 15.9313C6.23352 16.1266 5.84684 15.9486 5.07343 15.5925L4.87333 15.5005C4.65354 15.3992 4.54366 15.3487 4.42718 15.3487C4.3107 15.3487 4.20082 15.3992 3.98104 15.5005L3.78093 15.5925C3.00754 15.9486 2.62084 16.1266 2.36358 15.9313C2.10632 15.7361 2.1489 15.2968 2.23403 14.4183L2.25606 14.1909C2.28026 13.9413 2.29235 13.8164 2.25635 13.7007C2.22036 13.5849 2.14035 13.4914 1.98032 13.3042L1.83463 13.1339C1.2715 12.4754 0.98993 12.1461 1.08819 11.8301C1.18646 11.5141 1.59947 11.4207 2.4255 11.2338L2.63921 11.1855C2.87393 11.1323 2.9913 11.1058 3.08554 11.0343C3.17977 10.9627 3.24022 10.8543 3.36108 10.6375L3.47113 10.44Z" fill="rgb(0,0,0)" fill-opacity="0" fill-rule="nonzero" />
                <path id="Path 47146" d="M4.42718 9.29541C4.74516 9.29541 4.95785 9.67694 5.38323 10.44L5.49328 10.6375C5.61416 10.8543 5.67459 10.9627 5.76882 11.0343C5.86306 11.1058 5.98043 11.1323 6.21515 11.1855L6.42886 11.2338C7.25489 11.4207 7.66791 11.5141 7.76617 11.8301C7.86443 12.1461 7.58286 12.4754 7.01973 13.1339L6.87405 13.3042C6.71401 13.4914 6.634 13.5849 6.59801 13.7007C6.56201 13.8164 6.5741 13.9413 6.5983 14.1909L6.62033 14.4183C6.70546 15.2968 6.74804 15.7361 6.49078 15.9313C6.23352 16.1266 5.84684 15.9486 5.07343 15.5925L4.87333 15.5005C4.65354 15.3992 4.54366 15.3487 4.42718 15.3487C4.3107 15.3487 4.20082 15.3992 3.98104 15.5005L3.78093 15.5925C3.00754 15.9486 2.62084 16.1266 2.36358 15.9313C2.10632 15.7361 2.1489 15.2968 2.23403 14.4183L2.25606 14.1909C2.28026 13.9413 2.29235 13.8164 2.25635 13.7007C2.22036 13.5849 2.14035 13.4914 1.98032 13.3042L1.83463 13.1339C1.2715 12.4754 0.98993 12.1461 1.08819 11.8301C1.18646 11.5141 1.59947 11.4207 2.4255 11.2338L2.63921 11.1855C2.87393 11.1323 2.9913 11.1058 3.08554 11.0343C3.17977 10.9627 3.24022 10.8543 3.36108 10.6375L3.47113 10.44C3.89651 9.67696 4.1092 9.29541 4.42718 9.29541Z" fill-rule="nonzero" stroke="rgb(13,13,13)" stroke-width="1.79999995" />
            </g>
            <g style="mix-blend-mode:normal">
                <path id="Path 47147" d="M22.3543 26.9552C22.2937 26.9622 22.2324 26.969 22.1703 26.9753C22.2316 26.9753 22.2931 26.9683 22.3543 26.9552Z" fill="rgb(0,0,0)" fill-opacity="0" fill-rule="evenodd" />
                <path id="Path 47147" d="M6.10638 31.7763L9.90111 31.7763C11.5985 31.7763 13.3141 31.9531 14.966 32.2935C17.8882 32.8955 20.9647 32.9683 23.9168 32.4906C25.3724 32.2549 26.8034 31.8947 28.0988 31.2694C29.2682 30.705 30.7005 29.9095 31.6626 29.0183C32.6234 28.1286 33.624 26.6723 34.3341 25.5338C34.9431 24.5577 34.6486 23.3602 33.6853 22.6328C32.6154 21.8249 31.0276 21.8251 29.9578 22.6333L26.9233 24.9255C25.7472 25.8139 24.4627 26.6316 22.9323 26.8758C22.7483 26.9052 22.5555 26.9319 22.3543 26.9552M22.3543 26.9552C22.2937 26.9622 22.2324 26.969 22.1703 26.9753C21.2915 27.0655 20.2635 27.0889 19.1227 26.9811M22.1703 26.9753C22.2316 26.9753 22.2931 26.9683 22.3543 26.9552C22.5992 26.9028 22.8421 26.7517 23.0703 26.5527C24.1503 25.61 24.2185 24.0214 23.2814 22.9688C23.0641 22.7246 22.8096 22.5209 22.5268 22.3522C17.8296 19.5506 10.5215 21.6844 6.10638 24.8155" fill-rule="evenodd" stroke="rgb(13,13,13)" stroke-width="1.79999995" />
            </g>
            <g style="mix-blend-mode:normal">
                <rect id="Rectangle 7855" width="4.383683" height="12.055128" x="1.068909" y="21.993652" rx="1.500000" fill="rgb(0,0,0)" fill-opacity="0" />
                <rect id="Rectangle 7855" width="4.383683" height="12.055128" x="1.068909" y="21.993652" rx="1.500000" stroke="rgb(13,13,13)" stroke-width="1.79999995" />
            </g>
        </g>
    </g>
</svg>
